<svg id="Capa_1" enable-background="new 0 0 512 512" height="512" viewBox="0 0 512 512" 
width="512" xmlns="http://www.w3.org/2000/svg"><g><circle cx="256" cy="256" fill="#1766a0" r="256"/>
<g><path d="m256 0v512c141.385 0 256-114.615 256-256s-114.615-256-256-256z" fill="#08475e"/>
</g><circle cx="256" cy="256" fill="#ff6326" r="196"/><g>
<path d="m256 60v392c108.075 0 196-87.925 196-196s-87.925-196-196-196z" fill="#ff1f3e"/></g>
<path d="m383.7 200.644h-14.644v-14.644c0-8.284-6.716-15-15-15s-15 6.716-15 15v14.644h-15.356c-8.284 0-15 6.716-15 15s6.716 15 15 15h15.356v15.356c0 8.284 6.716 15 15 15s15-6.716 15-15v-15.356h14.644c8.284 0 15-6.716 15-15s-6.716-15-15-15z" fill="#e2dff4"/><g><g><path d="m170 341c-8.284 0-15-6.716-15-15v-105h-10.648c-8.284 0-15-6.716-15-15s6.716-15 15-15h25.648c8.284 0 15 6.716 15 15v120c0 8.284-6.716 15-15 15z" fill="#fff5f5"/></g></g><path d="m289.092 254.257c4.537-6.52 7.207-14.431 7.207-22.958 0-22.221-18.078-40.299-40.299-40.299s-40.299 18.078-40.299 40.299c0 8.527 2.67 16.439 7.207 22.958-10.184 9.108-16.609 22.336-16.609 37.042 0 27.405 22.296 49.701 49.701 49.701s49.701-22.296 49.701-49.701c0-14.706-6.425-27.934-16.609-37.042zm-43.391-22.958c0-5.679 4.62-10.299 10.299-10.299s10.299 4.62 10.299 10.299-4.62 10.299-10.299 10.299-10.299-4.62-10.299-10.299zm10.299 79.701c-10.863 0-19.701-8.838-19.701-19.701s8.838-19.701 19.701-19.701 19.701 8.838 19.701 19.701-8.838 19.701-19.701 19.701z" fill="#fff5f5"/><g><path d="m289.092 254.257c4.537-6.52 7.207-14.431 7.207-22.958 0-22.221-18.078-40.299-40.299-40.299v30c5.679 0 10.299 4.62 10.299 10.299s-4.62 10.299-10.299 10.299v30c10.863 0 19.701 8.838 19.701 19.701s-8.838 19.701-19.701 19.701v30c27.405 0 49.701-22.296 49.701-49.701 0-14.706-6.425-27.934-16.609-37.042z" fill="#e2dff4"/></g></g></svg>