<svg id="Capa_1" enable-background="new 0 0 512 512" height="512" viewBox="0 0 512 512" width="512" xmlns="http://www.w3.org/2000/svg"><g><g><path d="m1.139 106.992c.491 3.677 2.329 7.101 5.26 9.542l4.565 3.806c14.15 11.792 30.528 26.097 44.707 42.782 23.715 27.907 57.683 47.096 95.646 54.031 35.567 6.499 72.431 1.771 104.676-13.298 22.942 10.761 47.788 16.226 72.921 16.226 15.572 0 31.256-2.099 46.661-6.336 1.176-.323 2.308-.789 3.37-1.387l63.968-35.949c1.113-.625 2.142-1.39 3.061-2.275 3.662-3.53 7.146-7.235 10.354-11.011 14.18-16.687 30.558-30.991 44.707-42.782l4.566-3.807c2.931-2.441 4.769-5.865 5.26-9.542l-254.861-63.982z" fill="#ff1f3e"/><g><path d="m256 43.01v160.848c22.94 10.759 47.784 16.222 72.914 16.222 15.572 0 31.256-2.099 46.661-6.336 1.176-.323 2.308-.789 3.37-1.387l63.968-35.949c1.113-.625 2.142-1.39 3.061-2.275 3.662-3.53 7.146-7.235 10.354-11.011 14.18-16.687 30.558-30.991 44.707-42.782l4.566-3.807c2.931-2.441 4.769-5.865 5.26-9.542z" fill="#af3345"/></g><path d="m201.038 108.369c16.276 10.851 35.4 16.641 54.962 16.641 19.562 0 38.685-5.79 54.962-16.641 22.584-15.056 49.875-21.381 76.78-17.793l123.12 16.416c.194-1.45.184-2.937-.06-4.421-.865-5.247-4.443-9.644-9.405-11.557l-2.414-.931c-17.521-6.754-35.403-19.241-54.668-38.173-31.047-30.512-63.314-47.754-95.904-51.247-32.192-3.447-63.222 6.563-92.411 29.777-29.189-23.214-60.218-33.226-92.409-29.776-32.59 3.493-64.857 20.735-95.904 51.247-19.265 18.931-37.147 31.419-54.668 38.173l-2.414.931c-4.962 1.913-8.54 6.31-9.405 11.557-.244 1.484-.254 2.971-.06 4.421l123.12-16.416c26.903-3.588 54.194 2.736 76.778 17.792z" fill="#ff6326"/><g><path d="m510.801 102.571c-.865-5.247-4.443-9.644-9.405-11.557l-2.414-.931c-17.521-6.754-35.403-19.241-54.668-38.173-31.047-30.512-63.314-47.754-95.904-51.247-32.191-3.447-63.221 6.563-92.41 29.777v94.57c19.562 0 38.685-5.79 54.962-16.641 22.584-15.056 49.875-21.381 76.78-17.793l123.12 16.416c.193-1.45.183-2.937-.061-4.421z" fill="#ff1f3e"/></g></g><g><g><path d="m446 332h-80v-125c0-35.898 29.101-65 65-65 8.284 0 15 6.716 15 15z" fill="#ff6326"/></g><g><path d="m446 157c0-8.284-6.716-15-15-15-8.86 0-17.303 1.779-25 4.989v185.011h40z" fill="#ff1f3e"/></g><g><path d="m456 512h-100c-8.284 0-15-6.716-15-15v-126c0-8.284 6.716-15 15-15h100c8.284 0 15 6.716 15 15v126c0 8.284-6.716 15-15 15z" fill="#1766a0"/></g><g><path d="m456 356h-50v156h50c8.284 0 15-6.716 15-15v-126c0-8.284-6.716-15-15-15z" fill="#08475e"/></g><g><g><path d="m471 372h-130v-55c0-8.284 6.716-15 15-15h100c8.284 0 15 6.716 15 15z" fill="#fff5f5"/></g><g><path d="m471 372v-55c0-8.284-6.716-15-15-15h-50v70z" fill="#e2dff4"/></g></g></g></g></svg>